/* XPM */
static char * road_xpm[] = {
"32 32 3 1",
" 	c None",
".	c #8FDE5D",
"+	c #3CA370",
"...+......................++....",
".....................+....+...+.",
"................................",
"..........+.....................",
"................................",
".....+..........................",
".....+..........+...............",
".....+..+.......+.........+.....",
".....+..+................+......",
".....+...................+......",
"........................+.......",
".................+......+.......",
"........................+.......",
"................................",
"................................",
"....+...........................",
"....+................+..........",
"................................",
"...............+................",
"..........+.....................",
"...........+....................",
"...........+....................",
"...............................+",
"................................",
"................................",
"................................",
"...+..........+.................",
"..............+.................",
".....................+.....+....",
"......................+....+....",
".....+......................+...",
"...+++......................+..."};
