/* XPM */
static char * coin_xpm[] = {
"32 32 5 1",
" 	c None",
".	c #8FDE5D",
"+	c #3CA370",
"@	c #322947",
"#	c #EBD31F",
".....................+++........",
"....................+.......+...",
"...........+.......+........+...",
"............+.....+.........+...",
".......+....+.....+....+........",
"++.....+....+..........+..+.....",
".+.....+....+..........+...+....",
"..+....+....+...+......+...+....",
"..+....+...............+....+...",
".......+....................+...",
".......+.........@@@@@......+...",
".......+......@@@@@@@@@.........",
"+......+.....@@@@@@@@@@@........",
"........+...@@@@@@@@@@@@@.......",
"........+...@@@@@@@@@@@@@@......",
"...........@@@@@@@@@@@@@@@......",
"...........@@@@@@@@@....@@......",
".....+....@@@@#@@@@@....@@......",
"..+...+..@@@@@#@@@@@@....@+.....",
"......+..@@@@@#@@@@@@@....+.....",
"........@@@#######@@@@....+.....",
"........@@@@@@#@@@@@@@...+....+.",
"+.......@@@@@@#@@@@@@....+....+.",
"+........@@@@@#@@@@@.....+...+..",
"....+.....@@@@@@@@@......+...+..",
"....+......@@@@@@@@......+...+..",
".....+......@@@@@@.......+...+..",
".....+.......................+..",
".....+...............+.......+..",
"..................++..+.........",
".+..............++.....+........",
"..........++++++................"};
