/* XPM */
static char * ene1_xpm[] = {
"32 32 10 1",
" 	c None",
".	c #8FDE5D",
"+	c #322947",
"@	c #3CA370",
"#	c #EBD31F",
"$	c #422445",
"%	c #DC1818",
"&	c #000000",
"*	c #CC5500",
"=	c #4DA6FF",
"...................++++++++++...",
"......@.....@@...++++.........@.",
"..@...@..@@.@...+++++.........@.",
".@@..@..@...@.++++++++..........",
".@...@.......+++++++++..........",
"@...........+++++++++++...@.....",
"@..........+++++#++++++...@..@..",
"@.........++++++#+++++++.....@..",
"@..@@....++++++###+++++++....@..",
"...@....++++++#####+++++++......",
"...@....++++#########++++++.....",
"..@....+++++++#####+++++++++....",
".......++++++++###+++++++++++...",
"......$+++++++++#++++++++++++...",
".....$++++++++++#+++++++++++++..",
"....$$$$++++++++++++++++++++++..",
".$$$$$++++%%%%%%%%%%%%%%+%%%+++.",
"...$....%%%%%%%%%%%%%%%%%%%%%%..",
"........%%%%%%%%%%%%%%%%%%%%%...",
".......%%%%&&%%%&&%%%%%%%%.%%...",
".......%%%%&&%%%&&%%%%%%%..%%...",
".@..@.%%%%%&&%%%&&%%%%%%%..%%%..",
".@.@..%%%%*&&*%*&&*%%%%%%...%...",
"@..@..%%%%****%*****%%%%%...%...",
"..@....%%%%**%%%**%%%%%%....%...",
"..@....%%%%**%%%**%%%%%...@.....",
"........%%%**%%%**%%%%%...@...@.",
"..@...@..%%**%%%**%%%%%..@...@..",
".......@....*...*...%.......@...",
"..@........**=..*.....@@...@....",
".@@....*****...********.........",
"......******..@.******.........."};
