/* XPM */
static char * portal_xpm[] = {
"32 32 7 1",
" 	c None",
".	c #8FDE5D",
"+	c #3CA370",
"@	c #CC5500",
"#	c #CC7F00",
"$	c #EBD31F",
"%	c #474429",
"..............++.....++++.......",
"...............+.........+......",
"...................+......++....",
"...++....+..........+...........",
".....+....+.....................",
"......+...+.....................",
"..........+.....................",
"...........+..@@@@@@@@@......+..",
"...........+.@########@.....+...",
"...+.......+.@########@@....+...",
"...+........@##########@....+...",
"....+......@############@.......",
"....+......@############@.......",
".....+....@#############@.......",
".....+....@#############@@......",
".....+....@##############@..+...",
".....+....@##############@....+.",
".+........@##############@....+.",
"..........@##############@....+.",
"..........@##############@....+.",
"..........@##############@+...+.",
"....+.....@##########$###@+...+.",
".....+....@#########$$$##@....+.",
".....+....@##########$###@......",
".....+....@##############@....+.",
"......+...@##############@....+.",
"........%%@##############@.....+",
".+.....%%%@##############@..+..+",
"......%%%%@##############@..+...",
"....%%%%%%@##############@..+...",
"...%%%%%%%@##############@..+...",
".%%%%%%%%%@##############@...+.."};
