/* XPM */
static char * wall_xpm[] = {
"32 32 4 1",
" 	c None",
".	c #8FDE5D",
"+	c #3CA370",
"@	c #3D6E70",
"............++++...++...++......",
"..........++...++++..++..+......",
".........+....+++++++.++.++.....",
".....+..++++++++++++++++++.+....",
"......++++++++++++++@++++++.@...",
"....++++++++@@+++++++++++++@....",
"...++@++++++@++++++++@++++@+....",
"..+++@++++++@+++++++++@+++@++...",
".+++@++++++@+++++++++++++@+++...",
".++@+++++++@+++++++++++++@++++..",
".++@++++++++++++++++++++@+++++..",
".++@++++++++++++++++++++@+++++..",
".++++++++++++++++@+++++@++++++..",
".++++++++++++++++@+++@+@++++++..",
".++++++++@+++++++@++++@++++++..+",
".++++++++@++++++@++++++@+++++...",
".++++@+++@++++++@+++++++@++++...",
".+++++@+++@+++++@+++++++@@++++..",
".+.+++@+++@++++++@++++++@+@+++..",
".+.++++++++++@+++@++++++@++++.+.",
"...++++++++++@++++@++++++@+++.+.",
"....+++++++++@++++@++++++@+++++.",
"...@+++++++++@+++++@++@+++@++++.",
".....+++++++++@++++@+@++++@+++..",
".....+@+@++++++@++++@+@+++@+++..",
".....++@@++++++@++++++@++++@+...",
"....+.+++@@+++++++++++@++++@....",
"........+++@@++++++++++@++......",
"........+++++++++++++++.........",
".....+..++.++++++........+..++..",
"..........+...++++.+++..........",
"..........++...................."};
