/* XPM */
static char * ene2_xpm[] = {
"32 32 9 1",
" 	c None",
".	c #8FDE5D",
"+	c #322947",
"@	c #3CA370",
"#	c #EBD31F",
"$	c #422445",
"%	c #000000",
"&	c #EB564B",
"*	c #4DA6FF",
"...................++++++++++...",
"......@.....@@...++++.........@.",
"..@...@..@@.@...+++++.........@.",
".@@..@..@...@.++++++++..........",
".@...@.......+++++++++..........",
"@...........+++++++++++...@.....",
"@..........+++++#++++++...@..@..",
"@.........++++++#+++++++.....@..",
"@..@@....++++++###+++++++....@..",
"...@....++++++#####+++++++......",
"...@....++++#########++++++.....",
"..@....+++++++#####+++++++++....",
".......++++++++###+++++++++++...",
"......$+++++++++#++++++++++++...",
".....$++++++++++#+++++++++++++..",
"....$$$$++++++++++++++++++++++..",
".$$$$$++++##############+###+++.",
"...$....######################..",
"........#####################...",
".......####%%###%%########.##...",
".......####%%###%%#######..##...",
".@..@.#####%%###%%#######..###..",
".@.@..####&%%&#&%%&######...#...",
"@..@..####&&&&#&&&&&#####...#...",
"..@....####&&###&&######....#...",
"..@....####&&###&&#####...@.....",
"........###&&###&&#####...@...@.",
"..@...@..##&&###&&#####..@...@..",
".......@....&...&...#.......@...",
"..@........&&*..&.....@@...@....",
".@@....&&&&&...&&&&&&&&.........",
"......&&&&&&..@.&&&&&&.........."};
